<?xml version="1.0" encoding="iso-8859-1"?>
<!-- Uploaded to: SVG Repo, www.svgrepo.com, Generator: SVG Repo Mixer Tools -->
<svg height="800px" width="800px" version="1.1" id="Layer_1" xmlns="http://www.w3.org/2000/svg" xmlns:xlink="http://www.w3.org/1999/xlink" 
	 viewBox="0 0 512 512" xml:space="preserve">
<circle style="fill:#BCB6B8;" cx="256" cy="256" r="247.83"/>
<circle style="fill:#D2CFCE;" cx="256" cy="256" r="220.596"/>
<path style="fill:#8C8484;" d="M344.931,191.625H294.31c0,17.769-12.098,32.706-28.505,37.037v-26.632
	c-13.776,0-25.015,10.853-25.638,24.477c-13.254-6.026-22.476-19.373-22.476-34.882c-16.371-0.971-50.25,0-50.25,0
	c0,50.602,33.772,80.479,72.695,87.492l-8.804,60.661h49.337l-8.805-60.661C313.405,271.633,344.931,235.324,344.931,191.625z"/>
<path d="M437.019,74.981C388.668,26.628,324.38,0,256,0S123.332,26.628,74.981,74.981C26.628,123.332,0,187.62,0,256
	s26.628,132.668,74.981,181.019C123.332,485.372,187.62,512,256,512s132.668-26.628,181.019-74.981
	C485.372,388.668,512,324.38,512,256S485.372,123.332,437.019,74.981z M256,495.66c-132.149,0-239.66-107.51-239.66-239.66
	S123.851,16.34,256,16.34S495.66,123.851,495.66,256S388.149,495.66,256,495.66z M310.341,423.58
	c1.189,4.353-1.376,8.846-5.729,10.034c-15.764,4.305-32.119,6.488-48.612,6.488c-16.49,0-32.844-2.182-48.608-6.487
	c-4.353-1.189-6.919-5.681-5.73-10.034s5.682-6.914,10.034-5.73c14.362,3.923,29.268,5.911,44.304,5.911
	c15.039,0,29.945-1.989,44.307-5.911C304.662,416.662,309.152,419.227,310.341,423.58z M327.844,416.851
	c-2.033-4.028-0.414-8.941,3.614-10.975c56.934-28.724,92.303-86.153,92.303-149.875c0-92.504-75.257-167.762-167.762-167.762
	S88.238,163.496,88.238,256c0,63.724,35.37,121.154,92.307,149.878c4.028,2.033,5.647,6.946,3.615,10.974
	c-1.437,2.849-4.315,4.493-7.301,4.493c-1.238,0-2.494-0.281-3.673-0.877c-29.975-15.121-55.275-38.163-73.168-66.633
	c-18.396-29.271-28.12-63.101-28.12-97.835c0-101.514,82.588-184.102,184.102-184.102S440.102,154.486,440.102,256
	c0,34.732-9.724,68.562-28.119,97.832c-17.892,28.469-43.191,51.51-73.165,66.633C334.79,422.497,329.877,420.879,327.844,416.851z
	 M484.221,256c0,125.842-102.379,228.221-228.221,228.221S27.779,381.842,27.779,256c0-54.682,19.643-107.58,55.31-148.95
	c2.947-3.417,8.106-3.799,11.523-0.853c3.417,2.947,3.8,8.105,0.853,11.523C62.354,156.125,44.119,205.234,44.119,256
	c0,116.832,95.049,211.881,211.881,211.881S467.881,372.832,467.881,256S372.832,44.119,256,44.119
	c-50.768,0-99.876,18.235-138.279,51.346c-3.418,2.948-8.577,2.564-11.523-0.853c-2.947-3.417-2.564-8.577,0.853-11.523
	c41.37-35.667,94.267-55.31,148.95-55.31C381.842,27.779,484.221,130.158,484.221,256z M238.026,143.897
	c0-4.512,3.658-8.17,8.17-8.17h19.609c4.512,0,8.17,3.658,8.17,8.17c0,4.512-3.658,8.17-8.17,8.17h-19.609
	C241.684,152.067,238.026,148.409,238.026,143.897z M328.744,344.169c2.091,0,4.182-0.797,5.777-2.393
	c3.191-3.191,3.191-8.364,0-11.554L287.7,283.401c15.157-5.206,28.479-13.987,39.081-25.276h29.01c4.512,0,8.17-3.658,8.17-8.17
	c0-4.512-3.658-8.17-8.17-8.17h-16.62c2.467-4.092,4.63-8.378,6.478-12.823h27.067c4.512,0,8.17-3.658,8.17-8.17
	c0-4.512-3.658-8.17-8.17-8.17h-21.905c0.923-4.188,1.585-8.467,1.949-12.823h24.852c4.512,0,8.17-3.658,8.17-8.17
	s-3.658-8.17-8.17-8.17h-32.681h-50.623c-4.512,0-8.17,3.658-8.17,8.17c0,9.749-4.688,18.637-12.164,24.199v-13.795v-34.168
	c0-4.512-3.658-8.17-8.17-8.17h-19.609c-4.512,0-8.17,3.658-8.17,8.17s3.658,8.17,8.17,8.17h11.438v18.835
	c-9.977,2.464-18.226,9.325-22.501,18.485c-5.813-5.595-9.272-13.41-9.272-21.728c0-4.512-3.658-8.17-8.17-8.17h-50.623h-32.681
	c-4.512,0-8.17,3.658-8.17,8.17s3.658,8.17,8.17,8.17h24.852c0.364,4.357,1.026,8.635,1.949,12.823h-21.905
	c-4.512,0-8.17,3.658-8.17,8.17s3.658,8.17,8.17,8.17h27.067c1.849,4.445,4.011,8.732,6.478,12.823h-16.62
	c-4.512,0-8.17,3.658-8.17,8.17c0,4.512,3.658,8.17,8.17,8.17h29.01c10.602,11.289,23.923,20.07,39.081,25.276l-46.821,46.821
	c-3.191,3.191-3.191,8.364,0,11.554c1.595,1.595,3.686,2.393,5.777,2.393c2.09,0,4.182-0.797,5.777-2.393l39.485-39.484
	l-5.27,36.312v0.001l-0.84,5.789c-0.648,4.465,2.447,8.611,6.912,9.26c0.399,0.058,0.793,0.086,1.184,0.086
	c3.584,0,6.758-2.365,7.799-5.79h9.53v24.511c0,4.512,3.658,8.17,8.17,8.17c4.512,0,8.17-3.658,8.17-8.17v-24.511h9.53
	c1.04,3.426,4.215,5.79,7.799,5.79c0.39,0,0.786-0.028,1.184-0.086c4.465-0.648,7.559-4.794,6.912-9.26l-0.84-5.789v-0.001
	l-5.27-36.312l39.484,39.484C324.562,343.371,326.654,344.169,328.744,344.169z M240.773,331.609l7.448-51.318
	c0.009-0.061,0.01-0.122,0.017-0.183c0.017-0.141,0.031-0.281,0.04-0.423c0.01-0.133,0.016-0.265,0.02-0.397
	c0.002-0.124,0.001-0.248-0.001-0.373c-0.003-0.145-0.01-0.29-0.021-0.432c-0.009-0.113-0.022-0.227-0.035-0.341
	c-0.017-0.148-0.038-0.295-0.064-0.44c-0.02-0.113-0.044-0.227-0.069-0.34c-0.031-0.138-0.063-0.277-0.101-0.413
	c-0.034-0.122-0.071-0.243-0.11-0.363c-0.04-0.122-0.082-0.243-0.127-0.363c-0.049-0.13-0.102-0.258-0.159-0.386
	c-0.047-0.108-0.097-0.216-0.149-0.321c-0.064-0.13-0.131-0.257-0.203-0.385c-0.058-0.104-0.118-0.205-0.181-0.305
	c-0.073-0.119-0.149-0.237-0.23-0.353c-0.075-0.109-0.155-0.215-0.235-0.319c-0.076-0.1-0.153-0.199-0.234-0.295
	c-0.101-0.121-0.209-0.236-0.318-0.352c-0.051-0.054-0.097-0.113-0.15-0.167c-0.023-0.023-0.047-0.04-0.069-0.063
	c-0.124-0.121-0.255-0.236-0.387-0.35c-0.072-0.062-0.143-0.127-0.217-0.186c-0.133-0.107-0.272-0.205-0.413-0.304
	c-0.08-0.056-0.157-0.115-0.239-0.169c-0.133-0.086-0.271-0.163-0.409-0.242c-0.094-0.053-0.186-0.112-0.281-0.161
	c-0.122-0.063-0.249-0.117-0.375-0.173c-0.117-0.053-0.232-0.111-0.352-0.159c-0.106-0.042-0.215-0.075-0.322-0.112
	c-0.145-0.051-0.289-0.106-0.435-0.148c-0.097-0.027-0.197-0.047-0.295-0.072c-0.16-0.04-0.321-0.082-0.484-0.112
	c-0.017-0.003-0.034-0.009-0.051-0.012c-18.474-3.329-34.502-12.785-46.182-26.04c-0.26-0.345-0.545-0.67-0.857-0.97
	c-10.432-12.23-17.217-27.565-18.898-44.271h34.6c2.669,14.856,12.497,27.765,26.536,34.148c2.47,1.123,5.334,0.948,7.647-0.468
	c2.313-1.415,3.772-3.886,3.897-6.595c0.293-6.411,3.99-11.869,9.305-14.668v16.452c0,0.304,0.02,0.604,0.052,0.9
	c0.009,0.077,0.024,0.151,0.035,0.228c0.031,0.222,0.066,0.441,0.114,0.658c0.019,0.084,0.042,0.166,0.064,0.249
	c0.053,0.206,0.112,0.409,0.18,0.608c0.028,0.084,0.06,0.167,0.091,0.249c0.074,0.195,0.155,0.386,0.242,0.572
	c0.038,0.082,0.076,0.162,0.117,0.243c0.096,0.187,0.2,0.369,0.309,0.548c0.045,0.072,0.086,0.146,0.132,0.217
	c0.136,0.206,0.281,0.406,0.435,0.599c0.027,0.035,0.052,0.073,0.081,0.108c0.183,0.223,0.379,0.436,0.585,0.638
	c0.059,0.059,0.123,0.112,0.184,0.168c0.155,0.143,0.312,0.282,0.477,0.413c0.03,0.024,0.057,0.051,0.087,0.075
	c0.05,0.039,0.106,0.069,0.157,0.107c0.16,0.118,0.324,0.229,0.491,0.336c0.084,0.052,0.167,0.104,0.252,0.153
	c0.181,0.105,0.366,0.2,0.554,0.292c0.075,0.036,0.148,0.074,0.224,0.108c0.224,0.099,0.454,0.187,0.688,0.267
	c0.044,0.015,0.086,0.033,0.13,0.047c0.283,0.09,0.573,0.168,0.869,0.227c0.021,0.004,0.04,0.005,0.061,0.01
	c0.261,0.051,0.527,0.089,0.796,0.113c0.113,0.011,0.227,0.012,0.34,0.017c0.141,0.007,0.281,0.022,0.424,0.022
	c0.039,0,0.077-0.005,0.115-0.005c0.122-0.001,0.245-0.011,0.367-0.019c0.181-0.011,0.361-0.024,0.537-0.046
	c0.108-0.013,0.216-0.031,0.324-0.049c0.199-0.033,0.395-0.072,0.589-0.12c0.05-0.012,0.102-0.017,0.153-0.031
	c0.06-0.016,0.117-0.037,0.176-0.053c0.098-0.028,0.196-0.058,0.293-0.089c17.441-4.802,30.295-19.23,33.399-36.624h34.595
	c-1.681,16.705-8.465,32.041-18.898,44.271c-0.312,0.298-0.596,0.624-0.857,0.97c-11.679,13.255-27.708,22.712-46.182,26.04
	c-0.017,0.003-0.033,0.009-0.05,0.012c-0.167,0.03-0.33,0.073-0.495,0.114c-0.094,0.024-0.192,0.042-0.284,0.07
	c-0.154,0.045-0.303,0.1-0.453,0.154c-0.101,0.036-0.205,0.068-0.304,0.107c-0.126,0.05-0.249,0.112-0.374,0.169
	c-0.118,0.053-0.237,0.103-0.352,0.163c-0.102,0.053-0.202,0.115-0.302,0.173c-0.132,0.075-0.264,0.148-0.389,0.23
	c-0.087,0.057-0.17,0.12-0.254,0.181c-0.134,0.095-0.269,0.188-0.397,0.291c-0.078,0.064-0.154,0.133-0.231,0.2
	c-0.126,0.11-0.253,0.219-0.371,0.337c-0.024,0.023-0.05,0.042-0.073,0.066c-0.057,0.057-0.105,0.118-0.159,0.176
	c-0.103,0.11-0.207,0.221-0.304,0.337c-0.086,0.101-0.166,0.205-0.246,0.309c-0.076,0.1-0.153,0.202-0.224,0.305
	c-0.084,0.121-0.163,0.244-0.24,0.368c-0.059,0.095-0.115,0.191-0.17,0.288c-0.074,0.133-0.145,0.266-0.21,0.401
	c-0.049,0.1-0.096,0.202-0.141,0.304c-0.059,0.133-0.114,0.267-0.166,0.403c-0.044,0.113-0.083,0.228-0.121,0.344
	c-0.041,0.127-0.082,0.255-0.115,0.383c-0.036,0.13-0.066,0.259-0.096,0.391c-0.026,0.12-0.051,0.241-0.073,0.362
	c-0.024,0.138-0.044,0.278-0.061,0.418c-0.014,0.121-0.027,0.242-0.037,0.363c-0.011,0.136-0.016,0.273-0.02,0.411
	c-0.003,0.132-0.004,0.264-0.001,0.394c0.002,0.125,0.009,0.249,0.017,0.375c0.011,0.149,0.024,0.297,0.042,0.446
	c0.008,0.058,0.008,0.113,0.016,0.172l7.448,51.318h-30.453V331.609z"/>
</svg>